<svg id="ac587312-f1ad-408d-82dd-2c95d20df1bb" data-name="Capa 1" xmlns="http://www.w3.org/2000/svg" xmlns:xlink="http://www.w3.org/1999/xlink" viewBox="0 0 375 135.11"><defs><style>.a4c28d44-fe9c-4491-92c3-bc5846436582{fill:url(#bc152581-6b8b-450e-9143-e58cfbd5fba8);}.e20a522e-f863-44fb-afc2-ba927ea09b57{fill:url(#bd88ab04-6713-4537-976e-62464158a7c2);}.a87996fb-9a32-4106-a57d-52da4eb59b91{fill:url(#fecadd31-0511-4092-a252-d370602c7749);}.a5424b4b-a30b-44cb-95cd-672116db0fd8{fill:#fff;opacity:0.2;}</style><linearGradient id="bc152581-6b8b-450e-9143-e58cfbd5fba8" x1="137.77" y1="214.65" x2="231.52" y2="52.27" gradientUnits="userSpaceOnUse"><stop offset="0" stop-color="#b9a1ef"/><stop offset="0" stop-color="#9396f8"/><stop offset="0" stop-color="#768dff"/><stop offset="0.11" stop-color="#8993fa"/><stop offset="0.28" stop-color="#9e99f5"/><stop offset="0.46" stop-color="#ad9ef2"/><stop offset="0.68" stop-color="#b6a0f0"/><stop offset="1" stop-color="#b9a1ef"/></linearGradient><linearGradient id="bd88ab04-6713-4537-976e-62464158a7c2" x1="-51.11" y1="105.6" x2="42.64" y2="-56.78" xlink:href="#bc152581-6b8b-450e-9143-e58cfbd5fba8"/><linearGradient id="fecadd31-0511-4092-a252-d370602c7749" x1="-9.8" y1="129.45" x2="83.95" y2="-32.93" xlink:href="#bc152581-6b8b-450e-9143-e58cfbd5fba8"/></defs><title>Mesa de trabajo 11</title><path class="a4c28d44-fe9c-4491-92c3-bc5846436582" d="M375,135.11l-76.41-3.2A446.66,446.66,0,0,1,73.26,60.05l.17.26A18.53,18.53,0,0,1,71.9,82.13L37.85,122.69a17.18,17.18,0,0,1-18.46,5.55L0,121.92v13.19Z"/><path class="e20a522e-f863-44fb-afc2-ba927ea09b57" d="M4.9,4.9C3.26,3.27,1.62,1.64,0,0H0V17.73l12.6-5.4Q8.72,8.67,4.9,4.9Z"/><path class="a87996fb-9a32-4106-a57d-52da4eb59b91" d="M37.85,122.69,71.9,82.13a18.53,18.53,0,0,0,1.53-21.82l-.17-.26A436.62,436.62,0,0,1,12.6,12.33L0,17.73V121.92l19.39,6.32A17.18,17.18,0,0,0,37.85,122.69Z"/><path class="a5424b4b-a30b-44cb-95cd-672116db0fd8" d="M37.85,122.69,71.9,82.13a18.53,18.53,0,0,0,1.53-21.82l-.17-.26A436.62,436.62,0,0,1,12.6,12.33L0,17.73V121.92l19.39,6.32A17.18,17.18,0,0,0,37.85,122.69Z"/></svg>