<svg id="e2e2f1bf-560e-4c21-9e59-718749b0e67a" data-name="Capa 1" xmlns="http://www.w3.org/2000/svg" xmlns:xlink="http://www.w3.org/1999/xlink" viewBox="0 0 751.11 865.8"><defs><style>.fb5b20fb-062c-47ff-b04f-1dbaead579d0{fill:none;}.bd473caf-90dc-4138-9bc2-078eab29fa1e{clip-path:url(#f35765fb-82ba-4d53-b197-5abc1eb025c3);}.e995787d-0717-4aa5-b99d-7d871b9df788{opacity:0.8;fill:url(#b8064277-9305-41ec-a801-d8f8eb708b69);}.acfb256d-a87b-48a9-97fb-19a2b4e2a2e8{opacity:0.07;fill:url(#e61acae4-7045-40fa-ba2b-82d758640c03);}.b8b6d0a1-c00e-47e7-9826-f46b1c523fee{fill:#f9f9f9;opacity:0.05;}</style><clipPath id="f35765fb-82ba-4d53-b197-5abc1eb025c3"><rect class="fb5b20fb-062c-47ff-b04f-1dbaead579d0" width="751.11" height="865.8"/></clipPath><linearGradient id="b8064277-9305-41ec-a801-d8f8eb708b69" x1="-239.02" y1="11.56" x2="754.53" y2="11.56" gradientUnits="userSpaceOnUse"><stop offset="0.01" stop-color="#768dff"/><stop offset="0.39" stop-color="#8d94fa"/><stop offset="1" stop-color="#b9a1ef"/></linearGradient><linearGradient id="e61acae4-7045-40fa-ba2b-82d758640c03" x1="-1401.51" y1="-187.27" x2="-859.68" y2="-187.27" gradientTransform="matrix(1.6, -0.7, 0.84, 1.92, 2313.78, -180.14)" gradientUnits="userSpaceOnUse"><stop offset="0" stop-color="#887fde"/><stop offset="0" stop-color="#9d96de"/><stop offset="0" stop-color="#d1d0e0"/><stop offset="0" stop-color="#e0e0e0"/></linearGradient></defs><title>Mesa de trabajo 20</title><g class="bd473caf-90dc-4138-9bc2-078eab29fa1e"><g class="bd473caf-90dc-4138-9bc2-078eab29fa1e"><path class="e995787d-0717-4aa5-b99d-7d871b9df788" d="M726.6-75.37,352-318.32A53,53,0,0,0,313-326.11a51,51,0,0,1-9.86.91l-515-3.51c-8.51-.05-17.1,1.65-24.5,6-10.22,6.07,5.79,23.4,89,191.2.43.87.84,1.77,1.23,2.66L3.15,216a53.65,53.65,0,0,0,29.67,28.9L299,348.34A51.44,51.44,0,0,0,350.38,340L732.22,28.25a46.88,46.88,0,0,0,3.58-3.19C764.09-3.36,759.78-53.86,726.6-75.37Z"/><path class="acfb256d-a87b-48a9-97fb-19a2b4e2a2e8" d="M36.63-167.16-113.18,279.45c-16.73,49.89.51,114.19,41.54,154.86l360.36,357.2c32.83,32.54,74.71,43.64,108.6,28.8l369.32-161.8C803,642.6,823.36,599.88,818.48,550l-49-501.52c-6.06-62-49.14-118.26-101.1-132L137.5-224.08C92.62-235.95,52-213,36.63-167.16Z"/><path class="b8b6d0a1-c00e-47e7-9826-f46b1c523fee" d="M54-154.1-22.84,5.79A43.48,43.48,0,0,0-11.15,58L124.3,169.34a42,42,0,0,0,43.53,6.23l157-68.78a42.08,42.08,0,0,0,25-39.4L347-104.67a43.33,43.33,0,0,0-36.9-42.24L97.29-177.29A41.44,41.44,0,0,0,54-154.1Z"/></g></g></svg>