<svg id="edd734e6-7b81-4166-b0e6-2b65fdbc2d23" data-name="Capa 1" xmlns="http://www.w3.org/2000/svg" xmlns:xlink="http://www.w3.org/1999/xlink" viewBox="0 0 751.11 865.8"><defs><style>.e091cac0-ffcc-41d4-9399-f1ca7358de8d{fill:none;}.e11cb625-b6d8-455e-b24f-e366d663378f{clip-path:url(#bb5a5d50-bc8a-4878-877d-9e13c0408ca5);}.bf923e0b-acca-4fbb-80e2-17a6a6aeba7c{opacity:0.8;fill:url(#b41d79b7-c13b-4fa2-9bcf-1fad7b92d060);}.a4f34d5f-30fa-4707-86be-434906a5dc53{opacity:0.15;fill:url(#b3c50011-32f2-4627-a2e6-65baea8074af);}.b9ab389e-c924-4add-858f-865ebedcce23{fill:#f9f9f9;opacity:0.05;}</style><clipPath id="bb5a5d50-bc8a-4878-877d-9e13c0408ca5"><rect class="e091cac0-ffcc-41d4-9399-f1ca7358de8d" width="751.11" height="865.8"/></clipPath><linearGradient id="b41d79b7-c13b-4fa2-9bcf-1fad7b92d060" x1="-239.02" y1="11.56" x2="754.53" y2="11.56" gradientUnits="userSpaceOnUse"><stop offset="0.01" stop-color="#768dff"/><stop offset="0.39" stop-color="#8d94fa"/><stop offset="1" stop-color="#b9a1ef"/></linearGradient><linearGradient id="b3c50011-32f2-4627-a2e6-65baea8074af" x1="-1401.51" y1="-187.27" x2="-859.68" y2="-187.27" gradientTransform="matrix(1.6, -0.7, 0.84, 1.92, 2313.78, -180.14)" gradientUnits="userSpaceOnUse"><stop offset="0" stop-color="#887fde"/><stop offset="0" stop-color="#9d96de"/><stop offset="0" stop-color="#d1d0e0"/><stop offset="0" stop-color="#e0e0e0"/></linearGradient></defs><title>Mesa de trabajo 20</title><g class="e11cb625-b6d8-455e-b24f-e366d663378f"><g class="e11cb625-b6d8-455e-b24f-e366d663378f"><path class="bf923e0b-acca-4fbb-80e2-17a6a6aeba7c" d="M726.6-75.37,352-318.32A53,53,0,0,0,313-326.11a51,51,0,0,1-9.86.91l-515-3.51c-8.51-.05-17.1,1.65-24.5,6-10.22,6.07,5.79,23.4,89,191.2.43.87.84,1.77,1.23,2.66L3.15,216a53.65,53.65,0,0,0,29.67,28.9L299,348.34A51.44,51.44,0,0,0,350.38,340L732.22,28.25a46.88,46.88,0,0,0,3.58-3.19C764.09-3.36,759.78-53.86,726.6-75.37Z"/><path class="a4f34d5f-30fa-4707-86be-434906a5dc53" d="M36.63-167.16-113.18,279.45c-16.73,49.89.51,114.19,41.54,154.86l360.36,357.2c32.83,32.54,74.71,43.64,108.6,28.8l369.32-161.8C803,642.6,823.36,599.88,818.48,550l-49-501.52c-6.06-62-49.14-118.26-101.1-132L137.5-224.08C92.62-235.95,52-213,36.63-167.16Z"/><path class="b9ab389e-c924-4add-858f-865ebedcce23" d="M54-154.1-22.84,5.79A43.48,43.48,0,0,0-11.15,58L124.3,169.34a42,42,0,0,0,43.53,6.23l157-68.78a42.08,42.08,0,0,0,25-39.4L347-104.67a43.33,43.33,0,0,0-36.9-42.24L97.29-177.29A41.44,41.44,0,0,0,54-154.1Z"/></g></g></svg>