<svg id="abf2e1a8-ee51-4344-aa01-0788aa44159c" data-name="Capa 1" xmlns="http://www.w3.org/2000/svg" xmlns:xlink="http://www.w3.org/1999/xlink" viewBox="0 0 751.11 121.28"><defs><style>.a4390f36-491b-4e5b-a2c8-b78db79a0fd1{fill:none;}.b13c53f0-f04e-419f-939f-fa6050b5a55b{clip-path:url(#be5bb462-582f-4133-be47-18a08c331902);}.b6539559-db2c-4f6f-b26e-b93c367e0505{clip-path:url(#b792fb19-40dc-4dd0-a50d-3508ea6ab29f);}.ab3c0d1c-af59-4ffa-961a-1fceaf605bab,.f6db93d2-2094-498d-8fae-f87d79471bbc{opacity:0.8;}.ab3c0d1c-af59-4ffa-961a-1fceaf605bab{fill:url(#b00b9f22-b0dd-404c-8142-3947df16d280);}.f6db93d2-2094-498d-8fae-f87d79471bbc{fill:url(#b3394db4-ded8-4e60-8cb5-51fd2e3d931a);}</style><clipPath id="be5bb462-582f-4133-be47-18a08c331902"><rect class="a4390f36-491b-4e5b-a2c8-b78db79a0fd1" width="751.11" height="121.28"/></clipPath><clipPath id="b792fb19-40dc-4dd0-a50d-3508ea6ab29f"><rect class="a4390f36-491b-4e5b-a2c8-b78db79a0fd1" y="-744.52" width="751.11" height="865.8"/></clipPath><linearGradient id="b00b9f22-b0dd-404c-8142-3947df16d280" x1="-3272.36" y1="-5381.36" x2="-2504.15" y2="-5381.36" gradientTransform="matrix(-1.33, 0.17, -0.25, -2.04, -5406.96, -10238.02)" gradientUnits="userSpaceOnUse"><stop offset="0.01" stop-color="#768dff"/><stop offset="0.39" stop-color="#8d94fa"/><stop offset="1" stop-color="#b9a1ef"/></linearGradient><linearGradient id="b3394db4-ded8-4e60-8cb5-51fd2e3d931a" x1="-3954.17" y1="-5498.63" x2="-3185.96" y2="-5498.63" xlink:href="#b00b9f22-b0dd-404c-8142-3947df16d280"/></defs><title>Mesa de trabajo 21</title><g class="b13c53f0-f04e-419f-939f-fa6050b5a55b"><g class="b13c53f0-f04e-419f-939f-fa6050b5a55b"><g class="b6539559-db2c-4f6f-b26e-b93c367e0505"><g class="b6539559-db2c-4f6f-b26e-b93c367e0505"><path class="ab3c0d1c-af59-4ffa-961a-1fceaf605bab" d="M218.37,343.62,10.91,12.8A55.42,55.42,0,0,0-23.86-12.14L-310.33-75.43A52.11,52.11,0,0,0-361-58.53L-696.57,324.4a44.62,44.62,0,0,0-3.11,3.87c-24,33.85-11.37,85.14,25.75,101.91l419.07,189.37a53.66,53.66,0,0,0,40.69,1.7,50.73,50.73,0,0,1,9.83-2.54l522-79.93c8.63-1.32,17.05-4.47,23.82-10.2,9.36-7.9-9.69-23.15-121.41-182.42C219.48,345.33,218.91,344.48,218.37,343.62Z"/><path class="f6db93d2-2094-498d-8fae-f87d79471bbc" d="M1153.68,466.29,946.21,135.47a55.35,55.35,0,0,0-34.77-24.94L625,47.23a52.12,52.12,0,0,0-50.64,16.91L238.73,447.07a48.14,48.14,0,0,0-3.11,3.86c-24,33.85-11.37,85.15,25.75,101.92L680.44,742.21a53.57,53.57,0,0,0,40.69,1.7,51.72,51.72,0,0,1,9.84-2.53l522-79.93c8.63-1.32,17-4.48,23.83-10.2,9.35-7.91-9.7-23.16-121.42-182.42C1154.78,468,1154.22,467.15,1153.68,466.29Z"/></g></g></g></g></svg>