<svg id="f6af9ebf-eba5-462d-93c7-03967035ec4d" data-name="Capa 1" xmlns="http://www.w3.org/2000/svg" xmlns:xlink="http://www.w3.org/1999/xlink" viewBox="0 0 91.32 89.4"><defs><style>.b8080aca-227f-4021-aafb-7ce51e2e9d35{fill:none;}.a8817195-4b5a-4e84-a7a3-eeb0486dd650{clip-path:url(#e8b89699-177f-49b5-a077-37bf9b1119c0);}.a695933b-4a14-4c7b-b574-a21d80eb51b5,.acb6d2d3-c9f4-4879-809f-315ec4219ec8,.af24b807-a0fe-4dd8-95db-5152d187380d{opacity:0.1;}.acb6d2d3-c9f4-4879-809f-315ec4219ec8{fill:url(#ba08d5ca-40ef-4e11-9aad-a42430bbf7e1);}.bd095167-c1a8-478a-9e9c-8bd45cb70599{clip-path:url(#eb6c9d06-e82d-4fab-a9a8-89c6260029f6);}.bd3f71e9-ec16-4366-87da-f67537b83b59{fill:url(#b53e0055-dcc3-4be2-ab45-6965a6380fcb);}.f512c28c-3aa7-4a1d-94cd-7fd0061e9fdf{fill:url(#e0e46887-e560-40aa-bd82-922cb085185e);}.b3b75758-6c2b-4d03-93dc-36c1d90329e9{fill:url(#f9cda249-f6ac-41b6-a34d-f33ed7bae532);}.e27a80a5-cc73-4f51-934c-97d51743af45,.fd75443e-f2dd-4718-9fc2-413fa458bc58{opacity:0.15;}.e27a80a5-cc73-4f51-934c-97d51743af45{fill:url(#b192636e-c08d-4e86-91fc-8426b12c57ba);}.b7f2d48d-135a-4887-b0ba-b9ab4caf3459{fill:url(#bc8e1635-7894-4d23-b831-fec4f457229c);}.a695933b-4a14-4c7b-b574-a21d80eb51b5{fill:url(#a35771b8-8f04-4bcd-93be-f1d8fa37217d);}.b07ba5e3-5746-4660-ade0-f2a6879d149d{fill:url(#eb56e54e-9f90-4364-8341-70e1d8672199);}.fd75443e-f2dd-4718-9fc2-413fa458bc58{fill:url(#f968a7c8-b266-43b0-85c1-53037e2992f9);}.af24b807-a0fe-4dd8-95db-5152d187380d{fill:url(#f053b09e-1f45-4925-91ad-af014135ec45);}</style><clipPath id="e8b89699-177f-49b5-a077-37bf9b1119c0"><rect class="b8080aca-227f-4021-aafb-7ce51e2e9d35" x="-104.69" y="-17.33" width="91.32" height="89.4"/></clipPath><linearGradient id="ba08d5ca-40ef-4e11-9aad-a42430bbf7e1" x1="-100.26" y1="93.47" x2="-6.95" y2="93.47" gradientTransform="translate(-4.8 -49.11) rotate(-7.19)" gradientUnits="userSpaceOnUse"><stop offset="0" stop-color="#b9a1ef"/><stop offset="0" stop-color="#e4dcf6"/><stop offset="0" stop-color="#f9f9f9"/></linearGradient><clipPath id="eb6c9d06-e82d-4fab-a9a8-89c6260029f6"><rect class="b8080aca-227f-4021-aafb-7ce51e2e9d35" width="91.32" height="89.4"/></clipPath><linearGradient id="b53e0055-dcc3-4be2-ab45-6965a6380fcb" x1="-52.87" y1="-5.7" x2="47.83" y2="94.99" gradientUnits="userSpaceOnUse"><stop offset="0.02" stop-color="#b9a1ef"/><stop offset="0.34" stop-color="#a08ff4"/><stop offset="0.59" stop-color="#887ff9"/><stop offset="1" stop-color="#768dff"/></linearGradient><linearGradient id="e0e46887-e560-40aa-bd82-922cb085185e" x1="-6.98" y1="-51.59" x2="93.71" y2="49.11" xlink:href="#b53e0055-dcc3-4be2-ab45-6965a6380fcb"/><linearGradient id="f9cda249-f6ac-41b6-a34d-f33ed7bae532" x1="-30.13" y1="-28.44" x2="70.56" y2="72.26" xlink:href="#b53e0055-dcc3-4be2-ab45-6965a6380fcb"/><linearGradient id="b192636e-c08d-4e86-91fc-8426b12c57ba" x1="-67.25" y1="150.89" x2="22.69" y2="150.89" gradientTransform="translate(-1.38 -121.83) rotate(-16.05)" gradientUnits="userSpaceOnUse"><stop offset="0" stop-color="#b9a1ef"/><stop offset="0" stop-color="#e9e2fa"/><stop offset="0" stop-color="#fff"/></linearGradient><linearGradient id="bc8e1635-7894-4d23-b831-fec4f457229c" x1="-29.66" y1="-28.91" x2="71.04" y2="71.78" xlink:href="#b53e0055-dcc3-4be2-ab45-6965a6380fcb"/><linearGradient id="a35771b8-8f04-4bcd-93be-f1d8fa37217d" x1="1.44" y1="111.91" x2="94.75" y2="111.91" xlink:href="#ba08d5ca-40ef-4e11-9aad-a42430bbf7e1"/><linearGradient id="eb56e54e-9f90-4364-8341-70e1d8672199" x1="-31.1" y1="-27.48" x2="69.6" y2="73.22" xlink:href="#b53e0055-dcc3-4be2-ab45-6965a6380fcb"/><linearGradient id="f968a7c8-b266-43b0-85c1-53037e2992f9" x1="-67.25" y1="164.66" x2="22.69" y2="164.66" xlink:href="#b192636e-c08d-4e86-91fc-8426b12c57ba"/><linearGradient id="f053b09e-1f45-4925-91ad-af014135ec45" x1="1.44" y1="92.32" x2="94.75" y2="92.32" xlink:href="#ba08d5ca-40ef-4e11-9aad-a42430bbf7e1"/></defs><title>Mesa de trabajo 26</title><g class="a8817195-4b5a-4e84-a7a3-eeb0486dd650"><path class="acb6d2d3-c9f4-4879-809f-315ec4219ec8" d="M-84.83,23.83l-6.34,40.1a10.5,10.5,0,0,0,6.31,11.32l42.43,17.81a10.5,10.5,0,0,0,12.08-2.91L-1.89,56.49A10.51,10.51,0,0,0-1.12,44l-23-35.1a10.51,10.51,0,0,0-11.44-4.4L-77.11,15.31A10.52,10.52,0,0,0-84.83,23.83Z"/></g><g class="bd095167-c1a8-478a-9e9c-8bd45cb70599"><path class="bd3f71e9-ec16-4366-87da-f67537b83b59" d="M.05,56.21a9.28,9.28,0,0,0,4.63,9l10.45,6,3.09-19.59Z"/><path class="f512c28c-3aa7-4a1d-94cd-7fd0061e9fdf" d="M69.14,21.79a10.48,10.48,0,0,1,9,1.79L67.32,4.67A9.29,9.29,0,0,0,57.46.18L53.69.92,52.3,26.19Z"/><path class="b3b75758-6c2b-4d03-93dc-36c1d90329e9" d="M19.87,41.17a10.49,10.49,0,0,1,7.72-8.52L52.3,26.19,53.69.92,14,8.75a9.3,9.3,0,0,0-7.36,7.58L.13,55.61c0,.2-.06.4-.08.6l18.17-4.64Z"/><path class="e27a80a5-cc73-4f51-934c-97d51743af45" d="M19.87,41.17a10.49,10.49,0,0,1,7.72-8.52L52.3,26.19,53.69.92,14,8.75a9.3,9.3,0,0,0-7.36,7.58L.13,55.61c0,.2-.06.4-.08.6l18.17-4.64Z"/><path class="b7f2d48d-135a-4887-b0ba-b9ab4caf3459" d="M56.29,86.53,87.68,53.67a9.29,9.29,0,0,0,1.35-11L78.12,23.58a10.48,10.48,0,0,0-9-1.79L52.3,26.19l-.51,9.23A10.5,10.5,0,0,1,43.9,45L18.22,51.57,15.13,71.16,45,88.18A9.29,9.29,0,0,0,56.29,86.53Z"/><path class="a695933b-4a14-4c7b-b574-a21d80eb51b5" d="M56.29,86.53,87.68,53.67a9.29,9.29,0,0,0,1.35-11L78.12,23.58a10.48,10.48,0,0,0-9-1.79L52.3,26.19l-.51,9.23A10.5,10.5,0,0,1,43.9,45L18.22,51.57,15.13,71.16,45,88.18A9.29,9.29,0,0,0,56.29,86.53Z"/><path class="b07ba5e3-5746-4660-ade0-f2a6879d149d" d="M19.87,41.17l-1.65,10.4L43.9,45a10.5,10.5,0,0,0,7.89-9.6l.51-9.23L27.59,32.65A10.49,10.49,0,0,0,19.87,41.17Z"/><path class="fd75443e-f2dd-4718-9fc2-413fa458bc58" d="M19.87,41.17l-1.65,10.4L43.9,45a10.5,10.5,0,0,0,7.89-9.6l.51-9.23L27.59,32.65A10.49,10.49,0,0,0,19.87,41.17Z"/><path class="af24b807-a0fe-4dd8-95db-5152d187380d" d="M19.87,41.17l-1.65,10.4L43.9,45a10.5,10.5,0,0,0,7.89-9.6l.51-9.23L27.59,32.65A10.49,10.49,0,0,0,19.87,41.17Z"/></g></svg>