<svg id="ee2b6a38-629d-499c-97df-d375b59043b1" data-name="Capa 1" xmlns="http://www.w3.org/2000/svg" xmlns:xlink="http://www.w3.org/1999/xlink" viewBox="0 0 97.65 99.68"><defs><style>.ac0d6ef9-8823-4c45-9d98-8a06270c7fca{fill:none;}.b34e81ee-7810-46ca-9607-d18b629e8981{clip-path:url(#f0aa5f62-1d1a-482f-b1ce-16208383a45f);}.fa245f8f-358f-4663-8376-2fd155c01b10{fill:url(#a517042d-3209-4cde-9e28-081badc8eb80);}.f5bfcd12-0096-486e-aa3b-61b8a43a7389{fill:url(#b099b8ec-55c2-41e2-a64e-6b785060b9f8);}.e626102d-d352-4436-b18a-74071faccd3a{fill:url(#ba622706-3694-4ca5-86c4-895d94f42524);}.a5850ddf-bca0-4aec-96d2-36193979a1a9,.acdcb163-8494-4f3e-8a97-844b7caad65d,.b2144298-d62d-46be-9804-b2acc17e087d,.fe261a42-ccd9-444d-ab2d-fac5ad672a4e{opacity:0.1;}.fe261a42-ccd9-444d-ab2d-fac5ad672a4e{fill:url(#b82cfa66-e9f2-4805-8b30-9e5b85ef0fc8);}.b8585c6b-7833-47fa-a1ec-c2ef62f0bcfc{fill:url(#b539feb9-8f2c-473d-8977-1a246bd153ee);}.acdcb163-8494-4f3e-8a97-844b7caad65d{fill:url(#ac7a3c3b-ca18-4a2e-a499-5fda21adc039);}.ac971d7f-f215-4489-9a85-f1f7a51e850a{fill:url(#fd734f19-c394-44a7-87e2-b1d139802147);}.b2144298-d62d-46be-9804-b2acc17e087d{fill:url(#a76cca20-b355-4bc0-8150-2fe1f136da5e);}.a5850ddf-bca0-4aec-96d2-36193979a1a9{fill:url(#eee9bc6c-0cf5-4a23-a7df-4973dffd4e79);}</style><clipPath id="f0aa5f62-1d1a-482f-b1ce-16208383a45f"><rect class="ac0d6ef9-8823-4c45-9d98-8a06270c7fca" y="0.03" width="97.65" height="99.64"/></clipPath><linearGradient id="a517042d-3209-4cde-9e28-081badc8eb80" x1="20.68" y1="-146.54" x2="88.92" y2="-78.3" gradientTransform="translate(-8.21 125.65) rotate(15.56)" gradientUnits="userSpaceOnUse"><stop offset="0" stop-color="#b9a1ef"/><stop offset="0.18" stop-color="#a593f3"/><stop offset="0.47" stop-color="#887ff9"/><stop offset="0.75" stop-color="#7b89fd"/><stop offset="1" stop-color="#768dff"/></linearGradient><linearGradient id="b099b8ec-55c2-41e2-a64e-6b785060b9f8" x1="-29.62" y1="-96.24" x2="38.62" y2="-28" xlink:href="#a517042d-3209-4cde-9e28-081badc8eb80"/><linearGradient id="ba622706-3694-4ca5-86c4-895d94f42524" x1="-1.44" y1="-124.42" x2="66.8" y2="-56.18" xlink:href="#a517042d-3209-4cde-9e28-081badc8eb80"/><linearGradient id="b82cfa66-e9f2-4805-8b30-9e5b85ef0fc8" x1="26.06" y1="47.87" x2="122.78" y2="47.87" gradientTransform="translate(2.54 5.63) rotate(7.33)" gradientUnits="userSpaceOnUse"><stop offset="0" stop-color="#b9a1ef"/><stop offset="0" stop-color="#e9e2fa"/><stop offset="0" stop-color="#fff"/></linearGradient><linearGradient id="b539feb9-8f2c-473d-8977-1a246bd153ee" x1="-5.48" y1="-120.38" x2="62.76" y2="-52.14" xlink:href="#a517042d-3209-4cde-9e28-081badc8eb80"/><linearGradient id="ac7a3c3b-ca18-4a2e-a499-5fda21adc039" x1="-171.93" y1="608.55" x2="-75.22" y2="608.55" gradientTransform="translate(-194.07 -552.33) rotate(-32.59)" xlink:href="#b82cfa66-e9f2-4805-8b30-9e5b85ef0fc8"/><linearGradient id="fd734f19-c394-44a7-87e2-b1d139802147" x1="-4.55" y1="-121.3" x2="63.69" y2="-53.06" xlink:href="#a517042d-3209-4cde-9e28-081badc8eb80"/><linearGradient id="a76cca20-b355-4bc0-8150-2fe1f136da5e" x1="26.06" y1="32.85" x2="122.78" y2="32.85" xlink:href="#b82cfa66-e9f2-4805-8b30-9e5b85ef0fc8"/><linearGradient id="eee9bc6c-0cf5-4a23-a7df-4973dffd4e79" x1="-171.93" y1="628.24" x2="-75.22" y2="628.24" gradientTransform="translate(-194.07 -552.33) rotate(-32.59)" xlink:href="#b82cfa66-e9f2-4805-8b30-9e5b85ef0fc8"/></defs><title>Mesa de trabajo 22</title><g class="b34e81ee-7810-46ca-9607-d18b629e8981"><path class="fa245f8f-358f-4663-8376-2fd155c01b10" d="M77,24.63a14.76,14.76,0,0,1,7.17-.08l-7.43-16A14.78,14.78,0,0,0,62.31,0L58.06,29.6Z"/><path class="f5bfcd12-0096-486e-aa3b-61b8a43a7389" d="M8.28,61.32a14.84,14.84,0,0,1-7.66,0l-.5,4A14.77,14.77,0,0,0,8,80.21l11.93,6.18,2.57-28.8Z"/><path class="e626102d-d352-4436-b18a-74071faccd3a" d="M58.66,96.26l33.66-28a14.78,14.78,0,0,0,4-17.58L84.15,24.55a14.76,14.76,0,0,0-7.17.08l-18.92,5-1.4,9.7A14.79,14.79,0,0,1,45.78,51.49l-23.29,6.1-2.57,28.8L42.42,98A14.77,14.77,0,0,0,58.66,96.26Z"/><path class="fe261a42-ccd9-444d-ab2d-fac5ad672a4e" d="M58.66,96.26l33.66-28a14.78,14.78,0,0,0,4-17.58L84.15,24.55a14.76,14.76,0,0,0-7.17.08l-18.92,5-1.4,9.7A14.79,14.79,0,0,1,45.78,51.49l-23.29,6.1-2.57,28.8L42.42,98A14.77,14.77,0,0,0,58.66,96.26Z"/><path class="b8585c6b-7833-47fa-a1ec-c2ef62f0bcfc" d="M8.28,61.32l14.21-3.73.79-8.76a14.77,14.77,0,0,1,11-13L58.06,29.6,62.31,0A15.49,15.49,0,0,0,60.1.35L17,10A14.77,14.77,0,0,0,5.54,22.53L.62,61.27A14.84,14.84,0,0,0,8.28,61.32Z"/><path class="acdcb163-8494-4f3e-8a97-844b7caad65d" d="M8.28,61.32l14.21-3.73.79-8.76a14.77,14.77,0,0,1,11-13L58.06,29.6,62.31,0A15.49,15.49,0,0,0,60.1.35L17,10A14.77,14.77,0,0,0,5.54,22.53L.62,61.27A14.84,14.84,0,0,0,8.28,61.32Z"/><path class="ac971d7f-f215-4489-9a85-f1f7a51e850a" d="M23.28,48.83l-.79,8.76,23.29-6.1A14.79,14.79,0,0,0,56.66,39.3l1.4-9.7L34.24,35.85A14.77,14.77,0,0,0,23.28,48.83Z"/><path class="b2144298-d62d-46be-9804-b2acc17e087d" d="M23.28,48.83l-.79,8.76,23.29-6.1A14.79,14.79,0,0,0,56.66,39.3l1.4-9.7L34.24,35.85A14.77,14.77,0,0,0,23.28,48.83Z"/><path class="a5850ddf-bca0-4aec-96d2-36193979a1a9" d="M23.28,48.83l-.79,8.76,23.29-6.1A14.79,14.79,0,0,0,56.66,39.3l1.4-9.7L34.24,35.85A14.77,14.77,0,0,0,23.28,48.83Z"/></g></svg>