<svg xmlns="http://www.w3.org/2000/svg" xmlns:xlink="http://www.w3.org/1999/xlink" viewBox="0 0 96.71 101.04"><defs><style>.a10d355d-c305-4e3f-8c8b-e382d12d4df4{fill:url(#e5164254-6721-4748-b5cf-55ae8d031bea);}.b2ea34c9-45b5-4452-a605-aeb8082058c4{fill:url(#a81c563a-feae-49b8-905a-45df09792d19);}.fcdbaac9-9828-4e0e-ba4b-b9d30f65a199{fill:url(#e2ccd2e6-6220-4035-8729-69db96e4a0b5);}.ad1d0309-0bc1-4856-a248-c7ce444614ce,.bf1266a8-0b68-4e87-8ee9-b624958fd82d,.e4f2a84b-d5a1-4f2f-800e-9db434470db4,.e91dc226-8040-4250-9897-f87effdd899a{opacity:0.1;}.ad1d0309-0bc1-4856-a248-c7ce444614ce{fill:url(#bd84fbe8-7180-471a-8fa5-2e0198a0ad68);}.fa23ea2d-5bbd-402e-a2bd-2b49e107c29e{fill:url(#bbea8384-2166-4c79-8842-3a8c1644d042);}.e4f2a84b-d5a1-4f2f-800e-9db434470db4{fill:url(#b0dec42c-ed00-4398-91db-a02da44d35da);}.a45bd25a-d3ab-4a69-a798-0bc9d5aa9dc6{fill:url(#a91292aa-0624-4a2d-9c9a-572d8f03d177);}.bf1266a8-0b68-4e87-8ee9-b624958fd82d{fill:url(#f4bfb9b4-f449-4eb1-8de1-b0f0065fa8fe);}.e91dc226-8040-4250-9897-f87effdd899a{fill:url(#e2fce824-9b6e-4d14-8e37-6b3360c30cb6);}</style><linearGradient id="e5164254-6721-4748-b5cf-55ae8d031bea" x1="22.79" y1="-70.94" x2="91.03" y2="-2.7" gradientTransform="translate(9.33 60.49) rotate(6.11)" gradientUnits="userSpaceOnUse"><stop offset="0" stop-color="#b9a1ef"/><stop offset="0.18" stop-color="#a593f3"/><stop offset="0.47" stop-color="#887ff9"/><stop offset="0.75" stop-color="#7b89fd"/><stop offset="1" stop-color="#768dff"/></linearGradient><linearGradient id="a81c563a-feae-49b8-905a-45df09792d19" x1="-27.51" y1="-20.63" x2="40.73" y2="47.61" xlink:href="#e5164254-6721-4748-b5cf-55ae8d031bea"/><linearGradient id="e2ccd2e6-6220-4035-8729-69db96e4a0b5" x1="0.67" y1="-48.81" x2="68.91" y2="19.43" xlink:href="#e5164254-6721-4748-b5cf-55ae8d031bea"/><linearGradient id="bd84fbe8-7180-471a-8fa5-2e0198a0ad68" x1="23.64" y1="83.74" x2="120.35" y2="83.74" gradientTransform="translate(-4.63 -20.2) rotate(-2.13)" gradientUnits="userSpaceOnUse"><stop offset="0" stop-color="#b9a1ef"/><stop offset="0" stop-color="#e9e2fa"/><stop offset="0" stop-color="#fff"/></linearGradient><linearGradient id="bbea8384-2166-4c79-8842-3a8c1644d042" x1="-3.37" y1="-44.77" x2="64.87" y2="23.47" xlink:href="#e5164254-6721-4748-b5cf-55ae8d031bea"/><linearGradient id="b0dec42c-ed00-4398-91db-a02da44d35da" x1="-116.97" y1="463.15" x2="-20.26" y2="463.15" gradientTransform="matrix(0.74, -0.67, 0.67, 0.74, -234.73, -357.58)" xlink:href="#bd84fbe8-7180-471a-8fa5-2e0198a0ad68"/><linearGradient id="a91292aa-0624-4a2d-9c9a-572d8f03d177" x1="-2.44" y1="-45.7" x2="65.8" y2="22.54" xlink:href="#e5164254-6721-4748-b5cf-55ae8d031bea"/><linearGradient id="f4bfb9b4-f449-4eb1-8de1-b0f0065fa8fe" x1="23.64" y1="68.72" x2="120.35" y2="68.72" xlink:href="#bd84fbe8-7180-471a-8fa5-2e0198a0ad68"/><linearGradient id="e2fce824-9b6e-4d14-8e37-6b3360c30cb6" x1="-116.97" y1="482.84" x2="-20.26" y2="482.84" gradientTransform="matrix(0.74, -0.67, 0.67, 0.74, -234.73, -357.58)" xlink:href="#bd84fbe8-7180-471a-8fa5-2e0198a0ad68"/></defs><title>Recurso 12</title><g id="ac525842-41b5-431f-b512-5edf9c54b956" data-name="Capa 2"><g id="b55ee0bc-ee48-43a1-af8e-c5c48a60a7fc" data-name="Capa 1"><path class="a10d355d-c305-4e3f-8c8b-e382d12d4df4" d="M70.83,22.25A14.79,14.79,0,0,1,77.89,21l-10-14.57A14.76,14.76,0,0,0,52.32.4L53,30.26Z"/><path class="b2ea34c9-45b5-4452-a605-aeb8082058c4" d="M9.09,69.72a14.77,14.77,0,0,1-7.57,1.21l.16,4A14.78,14.78,0,0,0,11.9,88.41l12.79,4.13L22.5,63.71Z"/><path class="fcdbaac9-9828-4e0e-ba4b-b9d30f65a199" d="M64.52,95.92,93.13,62.75a14.77,14.77,0,0,0,1-18L77.89,21a14.79,14.79,0,0,0-7.06,1.25L53,30.26l.21,9.8a14.76,14.76,0,0,1-8.73,13.81l-22,9.84,2.19,28.83,24.1,7.79A14.79,14.79,0,0,0,64.52,95.92Z"/><path class="ad1d0309-0bc1-4856-a248-c7ce444614ce" d="M64.52,95.92,93.13,62.75a14.77,14.77,0,0,0,1-18L77.89,21a14.79,14.79,0,0,0-7.06,1.25L53,30.26l.21,9.8a14.76,14.76,0,0,1-8.73,13.81l-22,9.84,2.19,28.83,24.1,7.79A14.79,14.79,0,0,0,64.52,95.92Z"/><path class="fa23ea2d-5bbd-402e-a2bd-2b49e107c29e" d="M9.09,69.72l13.41-6-.67-8.77a14.77,14.77,0,0,1,8.69-14.6L53,30.26,52.32.4a15,15,0,0,0-2.13.67l-41,16.58A14.78,14.78,0,0,0,0,31.92l1.51,39A14.77,14.77,0,0,0,9.09,69.72Z"/><path class="e4f2a84b-d5a1-4f2f-800e-9db434470db4" d="M9.09,69.72l13.41-6-.67-8.77a14.77,14.77,0,0,1,8.69-14.6L53,30.26,52.32.4a15,15,0,0,0-2.13.67l-41,16.58A14.78,14.78,0,0,0,0,31.92l1.51,39A14.77,14.77,0,0,0,9.09,69.72Z"/><path class="a45bd25a-d3ab-4a69-a798-0bc9d5aa9dc6" d="M21.83,54.94l.67,8.77,22-9.84a14.76,14.76,0,0,0,8.73-13.81L53,30.26,30.52,40.34A14.77,14.77,0,0,0,21.83,54.94Z"/><path class="bf1266a8-0b68-4e87-8ee9-b624958fd82d" d="M21.83,54.94l.67,8.77,22-9.84a14.76,14.76,0,0,0,8.73-13.81L53,30.26,30.52,40.34A14.77,14.77,0,0,0,21.83,54.94Z"/><path class="e91dc226-8040-4250-9897-f87effdd899a" d="M21.83,54.94l.67,8.77,22-9.84a14.76,14.76,0,0,0,8.73-13.81L53,30.26,30.52,40.34A14.77,14.77,0,0,0,21.83,54.94Z"/></g></g></svg>