<svg xmlns="http://www.w3.org/2000/svg" xmlns:xlink="http://www.w3.org/1999/xlink" viewBox="0 0 92.27 89.68"><defs><style>.a7fca0c5-e101-40af-b1de-d1c13ab23f45{fill:url(#b4159cd2-1408-4aae-ac27-1c944430cd10);}.a8a21c6c-6057-491e-b1a4-e8606a7acdef{opacity:0.15;fill:url(#aecc4765-c569-4aee-aeb2-ceb74a4365d6);}.ad0cbf1c-10d4-4b88-9b38-224283708197{opacity:0.1;fill:url(#aeddd735-2da7-48e2-bb9e-5547886c19d3);}</style><linearGradient id="b4159cd2-1408-4aae-ac27-1c944430cd10" x1="-28.47" y1="-30" x2="72.68" y2="71.15" gradientUnits="userSpaceOnUse"><stop offset="0.02" stop-color="#b9a1ef"/><stop offset="0.34" stop-color="#a08ff4"/><stop offset="0.59" stop-color="#887ff9"/><stop offset="1" stop-color="#768dff"/></linearGradient><linearGradient id="aecc4765-c569-4aee-aeb2-ceb74a4365d6" x1="-58.17" y1="123.84" x2="31.78" y2="123.84" gradientTransform="matrix(1.02, -0.31, 0.24, 0.99, 6, -97.91)" gradientUnits="userSpaceOnUse"><stop offset="0" stop-color="#b9a1ef"/><stop offset="0" stop-color="#e9e2fa"/><stop offset="0" stop-color="#fff"/></linearGradient><linearGradient id="aeddd735-2da7-48e2-bb9e-5547886c19d3" x1="4.64" y1="99.26" x2="97.96" y2="99.26" gradientTransform="translate(-6.16 -35.83) rotate(-7.19)" gradientUnits="userSpaceOnUse"><stop offset="0" stop-color="#b9a1ef"/><stop offset="0" stop-color="#e4dcf6"/><stop offset="0" stop-color="#f9f9f9"/></linearGradient></defs><title>Recurso 34</title><g id="b14a6cfc-1f22-4ef2-aa19-ad62036c6a1a" data-name="Capa 2"><g id="ffe6be97-9abb-4d2b-9d32-e580dd65ef68" data-name="Capa 1"><path class="a7fca0c5-e101-40af-b1de-d1c13ab23f45" d="M90.29,42.8l-22-38a9.43,9.43,0,0,0-10-4.5l-33,6.45c-3,.73-6,1.5-9.06,2-1,.17-2.07.31-3.1.44A9.31,9.31,0,0,0,7,16.47L5.48,25.21c-.19,1.48-.39,3-.62,4.41q-1.37,8.62-3,17.18l-1.51,9A9.22,9.22,0,0,0,5,65.34l40.77,23a9.52,9.52,0,0,0,7.36.82,5.42,5.42,0,0,1,1.33-.52,8.52,8.52,0,0,0,1.31-.75c5-6.21,10.81-11.78,16.43-17.48,3.54-3.59,7.33-6.92,10.81-10.56C85.15,57.55,87,55,89,52.56c.82-1.52,1.62-3,2.48-4.52A9.24,9.24,0,0,0,90.29,42.8Z"/><path class="a8a21c6c-6057-491e-b1a4-e8606a7acdef" d="M58.62.06a46.17,46.17,0,0,1-6,1c-2.74.62-5.47,1.36-8.17,1.82-4.69.81-9.35,1.85-14,2.75S21,8,16.24,8.8c-1.57.26-3.13.45-4.7.64a10.23,10.23,0,0,0-4.48,6.35C6,20.3,5.59,25,4.86,29.62,3.47,38.38,1.89,47.09,0,55.74L46.68,43a12.1,12.1,0,0,0,8.83-10.15L59.15,0l-.22,0Z"/><path class="ad0cbf1c-10d4-4b88-9b38-224283708197" d="M87.12,36.14l0,0a6.94,6.94,0,0,1-1-1.6l-5.35-8.18a10.51,10.51,0,0,0-11.44-4.41L27.79,32.79a10.51,10.51,0,0,0-7.71,8.52L15.23,72l.45.17c11,4.82,21,11.7,31.55,17.45h0c1.66-.06,3.38,0,5,.08a5.38,5.38,0,0,1,2.93-1.19C60.37,82,66.35,76.28,72.15,70.4c3.54-3.59,7.33-6.92,10.81-10.56,2.21-2.31,4-4.92,6.1-7.33.83-1.55,1.64-3.1,2.51-4.6l0-.55a4.93,4.93,0,0,1,.67-2.46C90,42.44,88.57,39.18,87.12,36.14Z"/></g></g></svg>