<svg xmlns="http://www.w3.org/2000/svg" xmlns:xlink="http://www.w3.org/1999/xlink" viewBox="0 0 131.13 131.1"><defs><style>.a15b3cb1-6c4c-4aad-a4ef-63660e327eb1,.a9d94c43-e6bc-4e9e-bf02-c2565af1c614,.b4dd3f03-79a7-4ffc-b769-a3d1e5ba7269,.f6fcfb05-7011-4f58-bac1-5eedce01cb92{opacity:0.65;}.a15b3cb1-6c4c-4aad-a4ef-63660e327eb1{fill:url(#a4bbaf97-5e1b-4c85-b633-aa04f013f8bb);}.b4dd3f03-79a7-4ffc-b769-a3d1e5ba7269{fill:url(#fac16957-0418-4195-8b88-ef2ac609fc98);}.a62a6a45-a07f-4ecd-bc0a-1ce380fea17b,.ab0ea445-9fc0-426e-976b-265513cd5e35,.bd0e877e-a4b6-4d4c-a21b-e5882424f9ca,.e08e44ca-721d-4200-b633-9aad5bbe4665{opacity:0.1;}.ab0ea445-9fc0-426e-976b-265513cd5e35{fill:url(#fe319f3f-f571-4ea0-a0d7-76333d6bc6ba);}.a9d94c43-e6bc-4e9e-bf02-c2565af1c614{fill:url(#e69ff187-1677-4eb2-b329-3c33eefccf8b);}.a62a6a45-a07f-4ecd-bc0a-1ce380fea17b{fill:url(#a1dacb58-6f0e-4591-979a-196a125e905b);}.f6fcfb05-7011-4f58-bac1-5eedce01cb92{fill:url(#be6ddc6c-ba6b-4b12-90c2-b726d2bbe68d);}.e08e44ca-721d-4200-b633-9aad5bbe4665{fill:url(#f24de1f2-91d9-4792-921b-22657a4c63f4);}.bd0e877e-a4b6-4d4c-a21b-e5882424f9ca{fill:url(#e2f23ced-8967-4b08-b17e-e441d8029741);}</style><linearGradient id="a4bbaf97-5e1b-4c85-b633-aa04f013f8bb" x1="123.36" y1="152.06" x2="226.17" y2="254.88" gradientTransform="matrix(0.83, -0.3, 0.29, 0.88, -150.77, -33.45)" gradientUnits="userSpaceOnUse"><stop offset="0" stop-color="#b9a1ef"/><stop offset="0.18" stop-color="#a593f3"/><stop offset="0.47" stop-color="#887ff9"/><stop offset="0.75" stop-color="#7b89fd"/><stop offset="1" stop-color="#768dff"/></linearGradient><linearGradient id="fac16957-0418-4195-8b88-ef2ac609fc98" x1="127.54" y1="147.88" x2="230.36" y2="250.69" xlink:href="#a4bbaf97-5e1b-4c85-b633-aa04f013f8bb"/><linearGradient id="fe319f3f-f571-4ea0-a0d7-76333d6bc6ba" x1="-5.01" y1="50.95" x2="141.14" y2="50.95" gradientTransform="translate(42.03 42.8) rotate(12.28)" gradientUnits="userSpaceOnUse"><stop offset="0" stop-color="#b9a1ef"/><stop offset="0" stop-color="#e9e2fa"/><stop offset="0" stop-color="#fff"/></linearGradient><linearGradient id="e69ff187-1677-4eb2-b329-3c33eefccf8b" x1="159.3" y1="116.13" x2="262.11" y2="218.94" xlink:href="#a4bbaf97-5e1b-4c85-b633-aa04f013f8bb"/><linearGradient id="a1dacb58-6f0e-4591-979a-196a125e905b" x1="-180.59" y1="659.55" x2="-38.17" y2="659.55" gradientTransform="translate(-119.84 -601.78) rotate(-27.22)" xlink:href="#fe319f3f-f571-4ea0-a0d7-76333d6bc6ba"/><linearGradient id="be6ddc6c-ba6b-4b12-90c2-b726d2bbe68d" x1="147.83" y1="127.59" x2="250.64" y2="230.41" xlink:href="#a4bbaf97-5e1b-4c85-b633-aa04f013f8bb"/><linearGradient id="f24de1f2-91d9-4792-921b-22657a4c63f4" x1="-5.01" y1="22.12" x2="141.14" y2="22.12" xlink:href="#fe319f3f-f571-4ea0-a0d7-76333d6bc6ba"/><linearGradient id="e2f23ced-8967-4b08-b17e-e441d8029741" x1="-180.59" y1="693.45" x2="-38.17" y2="693.45" gradientTransform="translate(-119.84 -601.78) rotate(-27.22)" xlink:href="#fe319f3f-f571-4ea0-a0d7-76333d6bc6ba"/></defs><title>Recurso 16</title><g id="a8c5605a-188e-4445-a031-da7c39a7ffe7" data-name="Capa 2"><g id="a40e705d-4bca-47fc-a0b5-0004b1f5849f" data-name="Capa 1"><path class="a15b3cb1-6c4c-4aad-a4ef-63660e327eb1" d="M31.1,76.42,9.76,41.82,4.84,47.11a19,19,0,0,0-2.4,22L23.73,108.6l4.19-24.46A19.32,19.32,0,0,1,31.1,76.42Z"/><path class="b4dd3f03-79a7-4ffc-b769-a3d1e5ba7269" d="M50,131l50.57-4.87a18,18,0,0,0,15.93-13.51l8.92-34.83A21.9,21.9,0,0,1,113.82,83L56.5,90.78A23.64,23.64,0,0,1,33.36,80.07L31.1,76.42a19.32,19.32,0,0,0-3.18,7.72L23.73,108.6l6.2,11.48A20.81,20.81,0,0,0,50,131Z"/><path class="ab0ea445-9fc0-426e-976b-265513cd5e35" d="M50,131l50.57-4.87a18,18,0,0,0,15.93-13.51l8.92-34.83A21.9,21.9,0,0,1,113.82,83L56.5,90.78A23.64,23.64,0,0,1,33.36,80.07L31.1,76.42a19.32,19.32,0,0,0-3.18,7.72L23.73,108.6l6.2,11.48A20.81,20.81,0,0,0,50,131Z"/><path class="a9d94c43-e6bc-4e9e-bf02-c2565af1c614" d="M45.7,67.64,111,58.31a23.9,23.9,0,0,1,18.16,4.93l1.41-5.49c2.15-8.39-1.75-17.51-9.49-22.21L67.4,3c-8-4.87-18.06-3.71-24.1,2.78l-33.54,36L31.1,76.42A21.3,21.3,0,0,1,45.7,67.64Z"/><path class="a62a6a45-a07f-4ecd-bc0a-1ce380fea17b" d="M45.7,67.64,111,58.31a23.9,23.9,0,0,1,18.16,4.93l1.41-5.49c2.15-8.39-1.75-17.51-9.49-22.21L67.4,3c-8-4.87-18.06-3.71-24.1,2.78l-33.54,36L31.1,76.42A21.3,21.3,0,0,1,45.7,67.64Z"/><path class="f6fcfb05-7011-4f58-bac1-5eedce01cb92" d="M111,58.31,45.7,67.64a21.3,21.3,0,0,0-14.6,8.78l2.26,3.65A23.64,23.64,0,0,0,56.5,90.78L113.82,83a21.9,21.9,0,0,0,11.59-5.23l3.72-14.56A23.9,23.9,0,0,0,111,58.31Z"/><path class="e08e44ca-721d-4200-b633-9aad5bbe4665" d="M111,58.31,45.7,67.64a21.3,21.3,0,0,0-14.6,8.78l2.26,3.65A23.64,23.64,0,0,0,56.5,90.78L113.82,83a21.9,21.9,0,0,0,11.59-5.23l3.72-14.56A23.9,23.9,0,0,0,111,58.31Z"/><path class="bd0e877e-a4b6-4d4c-a21b-e5882424f9ca" d="M111,58.31,45.7,67.64a21.3,21.3,0,0,0-14.6,8.78l2.26,3.65A23.64,23.64,0,0,0,56.5,90.78L113.82,83a21.9,21.9,0,0,0,11.59-5.23l3.72-14.56A23.9,23.9,0,0,0,111,58.31Z"/></g></g></svg>