<svg xmlns="http://www.w3.org/2000/svg" xmlns:xlink="http://www.w3.org/1999/xlink" viewBox="0 0 90.25 89.4"><defs><style>.a52ac6e8-cd1e-4734-995a-fd01b5fa27ce{fill:none;}.e826899a-d452-4a5c-a00e-670a9f02312e{clip-path:url(#af78c900-c4bd-4536-9cc6-495d0798c635);}.ffc52122-2202-42a8-9a72-1379556a3ec7{fill:url(#ad0f58d4-f3dd-4b6b-8b76-044edf4eec3b);}.a51d08cb-820a-4384-b4fc-60cdbfc8321b{fill:url(#b79ed71a-ec72-4143-aea3-4cd721c89401);}.b9ec9068-a8e9-4b61-8142-45739b4821fa{fill:url(#e867733d-5f7d-4272-acc7-9befaf6ff30b);}.a766ccfa-b9b9-43c0-86a1-7c4ebe637b7c,.b6dbe088-bb47-4338-8d20-02a92904caf0{opacity:0.15;}.a766ccfa-b9b9-43c0-86a1-7c4ebe637b7c{fill:url(#adfc02d7-248b-49c0-8529-d8eb89c92152);}.e7ce6a86-4d41-41e3-a67a-9ed56251c8b2{fill:url(#fa7172c2-6950-48e1-9e21-b28882dba07a);}.aad6aa78-e181-406b-9eee-b29d36b9962d,.f7967783-9e7d-4592-95a7-8da76c0ab16b{opacity:0.1;}.aad6aa78-e181-406b-9eee-b29d36b9962d{fill:url(#f8c19c7b-617b-4c83-afab-cd6f7bce495d);}.e0342925-ea9b-4338-82e3-4e9f6a9cb488{fill:url(#ab5b8450-9d9b-4936-8595-8ebaa241533c);}.b6dbe088-bb47-4338-8d20-02a92904caf0{fill:url(#e1bc63a4-b8f3-4178-9da4-612ca06125e3);}.f7967783-9e7d-4592-95a7-8da76c0ab16b{fill:url(#e3cbcf06-f7af-46c9-b8eb-e4713d799dbd);}</style><clipPath id="af78c900-c4bd-4536-9cc6-495d0798c635" transform="translate(0 0)"><rect class="a52ac6e8-cd1e-4734-995a-fd01b5fa27ce" width="91.32" height="89.4"/></clipPath><linearGradient id="ad0f58d4-f3dd-4b6b-8b76-044edf4eec3b" x1="-52.87" y1="-5.7" x2="47.83" y2="94.99" gradientUnits="userSpaceOnUse"><stop offset="0.02" stop-color="#b9a1ef"/><stop offset="0.34" stop-color="#a08ff4"/><stop offset="0.59" stop-color="#887ff9"/><stop offset="1" stop-color="#768dff"/></linearGradient><linearGradient id="b79ed71a-ec72-4143-aea3-4cd721c89401" x1="-6.98" y1="-51.59" x2="93.71" y2="49.11" xlink:href="#ad0f58d4-f3dd-4b6b-8b76-044edf4eec3b"/><linearGradient id="e867733d-5f7d-4272-acc7-9befaf6ff30b" x1="-30.13" y1="-28.44" x2="70.56" y2="72.26" xlink:href="#ad0f58d4-f3dd-4b6b-8b76-044edf4eec3b"/><linearGradient id="adfc02d7-248b-49c0-8529-d8eb89c92152" x1="-67.25" y1="150.89" x2="22.69" y2="150.89" gradientTransform="translate(-1.38 -121.83) rotate(-16.05)" gradientUnits="userSpaceOnUse"><stop offset="0" stop-color="#b9a1ef"/><stop offset="0" stop-color="#e9e2fa"/><stop offset="0" stop-color="#fff"/></linearGradient><linearGradient id="fa7172c2-6950-48e1-9e21-b28882dba07a" x1="-29.66" y1="-28.91" x2="71.04" y2="71.78" xlink:href="#ad0f58d4-f3dd-4b6b-8b76-044edf4eec3b"/><linearGradient id="f8c19c7b-617b-4c83-afab-cd6f7bce495d" x1="1.44" y1="111.91" x2="94.75" y2="111.91" gradientTransform="translate(-4.8 -49.11) rotate(-7.19)" gradientUnits="userSpaceOnUse"><stop offset="0" stop-color="#b9a1ef"/><stop offset="0" stop-color="#e4dcf6"/><stop offset="0" stop-color="#f9f9f9"/></linearGradient><linearGradient id="ab5b8450-9d9b-4936-8595-8ebaa241533c" x1="-31.1" y1="-27.48" x2="69.6" y2="73.22" xlink:href="#ad0f58d4-f3dd-4b6b-8b76-044edf4eec3b"/><linearGradient id="e1bc63a4-b8f3-4178-9da4-612ca06125e3" x1="-67.25" y1="164.66" x2="22.69" y2="164.66" xlink:href="#adfc02d7-248b-49c0-8529-d8eb89c92152"/><linearGradient id="e3cbcf06-f7af-46c9-b8eb-e4713d799dbd" x1="1.44" y1="92.32" x2="94.75" y2="92.32" xlink:href="#f8c19c7b-617b-4c83-afab-cd6f7bce495d"/></defs><title>Recurso 37</title><g id="e9c1d640-250d-4b3a-85f1-03948ebbcb3e" data-name="Capa 2"><g id="bcc42ec4-eee6-45d0-9a82-5f7ba053c9bf" data-name="Capa 1"><g class="e826899a-d452-4a5c-a00e-670a9f02312e"><path class="ffc52122-2202-42a8-9a72-1379556a3ec7" d="M.05,56.21a9.28,9.28,0,0,0,4.63,9l10.45,6,3.09-19.59Z" transform="translate(0 0)"/><path class="a51d08cb-820a-4384-b4fc-60cdbfc8321b" d="M69.14,21.79a10.48,10.48,0,0,1,9,1.79L67.32,4.67A9.29,9.29,0,0,0,57.46.18L53.69.92,52.3,26.19Z" transform="translate(0 0)"/><path class="b9ec9068-a8e9-4b61-8142-45739b4821fa" d="M19.87,41.17a10.49,10.49,0,0,1,7.72-8.52L52.3,26.19,53.69.92,14,8.75a9.3,9.3,0,0,0-7.36,7.58L.13,55.61c0,.2-.06.4-.08.6l18.17-4.64Z" transform="translate(0 0)"/><path class="a766ccfa-b9b9-43c0-86a1-7c4ebe637b7c" d="M19.87,41.17a10.49,10.49,0,0,1,7.72-8.52L52.3,26.19,53.69.92,14,8.75a9.3,9.3,0,0,0-7.36,7.58L.13,55.61c0,.2-.06.4-.08.6l18.17-4.64Z" transform="translate(0 0)"/><path class="e7ce6a86-4d41-41e3-a67a-9ed56251c8b2" d="M56.29,86.53,87.68,53.67a9.29,9.29,0,0,0,1.35-11L78.12,23.58a10.48,10.48,0,0,0-9-1.79L52.3,26.19l-.51,9.23A10.5,10.5,0,0,1,43.9,45L18.22,51.57,15.13,71.16,45,88.18A9.29,9.29,0,0,0,56.29,86.53Z" transform="translate(0 0)"/><path class="aad6aa78-e181-406b-9eee-b29d36b9962d" d="M56.29,86.53,87.68,53.67a9.29,9.29,0,0,0,1.35-11L78.12,23.58a10.48,10.48,0,0,0-9-1.79L52.3,26.19l-.51,9.23A10.5,10.5,0,0,1,43.9,45L18.22,51.57,15.13,71.16,45,88.18A9.29,9.29,0,0,0,56.29,86.53Z" transform="translate(0 0)"/><path class="e0342925-ea9b-4338-82e3-4e9f6a9cb488" d="M19.87,41.17l-1.65,10.4L43.9,45a10.5,10.5,0,0,0,7.89-9.6l.51-9.23L27.59,32.65A10.49,10.49,0,0,0,19.87,41.17Z" transform="translate(0 0)"/><path class="b6dbe088-bb47-4338-8d20-02a92904caf0" d="M19.87,41.17l-1.65,10.4L43.9,45a10.5,10.5,0,0,0,7.89-9.6l.51-9.23L27.59,32.65A10.49,10.49,0,0,0,19.87,41.17Z" transform="translate(0 0)"/><path class="f7967783-9e7d-4592-95a7-8da76c0ab16b" d="M19.87,41.17l-1.65,10.4L43.9,45a10.5,10.5,0,0,0,7.89-9.6l.51-9.23L27.59,32.65A10.49,10.49,0,0,0,19.87,41.17Z" transform="translate(0 0)"/></g></g></g></svg>