<svg id="f83b4f7b-8779-4e6e-8103-0d7208c7d7e9" data-name="Capa 1" xmlns="http://www.w3.org/2000/svg" viewBox="0 0 101.07 61.37"><defs><style>.a154a0d8-55dd-413f-9fbc-324d4eac5b0b{fill:#ffc250;}.e84995f4-2b57-4bd7-9a0a-972715fa7eb3{fill:#ffd064;}.ed10d009-e57a-4c20-b100-93db96473108{fill:#ffe19d;}.eef95b13-d585-46cf-8eef-7acf3c7ccd63{fill:#f7931a;}</style></defs><title>batatabit</title><path class="a154a0d8-55dd-413f-9fbc-324d4eac5b0b" d="M45.65,29.34c-8.59,2.67-22.47-.06-22.6-12s14.69-4.81,14.69-4.81Z"/><path class="e84995f4-2b57-4bd7-9a0a-972715fa7eb3" d="M27.23,10.7c6-1,10.55,6.92,15.59,15.21S61,37.49,69.37,30.51,81.3,11.33,71,4.05,54.28,13.3,45.42,13.76,36.5,7.62,27.23,10.7Z"/><circle class="ed10d009-e57a-4c20-b100-93db96473108" cx="70.14" cy="17.75" r="2.63"/><circle class="ed10d009-e57a-4c20-b100-93db96473108" cx="65.09" cy="19.72" r="1.97"/><circle class="ed10d009-e57a-4c20-b100-93db96473108" cx="68.6" cy="22.35" r="1.54"/><path class="eef95b13-d585-46cf-8eef-7acf3c7ccd63" d="M1.18,57.37V40.57H7.93a5.81,5.81,0,0,1,4,1.22,3.9,3.9,0,0,1,1.39,3.1,3.67,3.67,0,0,1-.86,2.54,4.23,4.23,0,0,1-2.07,1.28,4,4,0,0,1,2.38,1.44,4,4,0,0,1,.94,2.64,4.22,4.22,0,0,1-1.44,3.28,5.86,5.86,0,0,1-4.08,1.3Zm3.07-9.74H7.47a3,3,0,0,0,2-.6,2.12,2.12,0,0,0,.7-1.71,2,2,0,0,0-.7-1.65,2.9,2.9,0,0,0-2-.63H4.25Zm0,7.24H7.69a3.18,3.18,0,0,0,2.11-.62,2.23,2.23,0,0,0,.77-1.8,2.31,2.31,0,0,0-.8-1.85,3.16,3.16,0,0,0-2.13-.67H4.25ZM19.4,57.66a5.72,5.72,0,0,1-2.52-.48,3.36,3.36,0,0,1-1.95-3.12,3.26,3.26,0,0,1,1.3-2.69,6.15,6.15,0,0,1,3.89-1h3v-.29a2.18,2.18,0,0,0-.7-1.8,2.63,2.63,0,0,0-1.72-.58,3,3,0,0,0-1.64.46,1.88,1.88,0,0,0-.86,1.3h-3a4.28,4.28,0,0,1,.86-2.26,4.9,4.9,0,0,1,2-1.46,6.49,6.49,0,0,1,2.69-.53,5.9,5.9,0,0,1,4,1.27,4.54,4.54,0,0,1,1.46,3.6v7.32H23.6l-.29-1.92A4.33,4.33,0,0,1,21.82,57,4.24,4.24,0,0,1,19.4,57.66Zm.69-2.4a2.5,2.5,0,0,0,2-.87,4.08,4.08,0,0,0,.94-2.13H20.45a2.7,2.7,0,0,0-1.75.45,1.35,1.35,0,0,0-.53,1.08,1.25,1.25,0,0,0,.53,1.08A2.29,2.29,0,0,0,20.09,55.26Zm13.23,2.11a4.61,4.61,0,0,1-3-.91,4,4,0,0,1-1.13-3.24V48h-2V45.47h2l.36-3.2h2.72v3.2h3.21V48H32.27v5.21a1.59,1.59,0,0,0,.36,1.2,2,2,0,0,0,1.29.31h1.49v2.62Zm7.94.29a5.78,5.78,0,0,1-2.52-.48,3.56,3.56,0,0,1-1.46-1.32,3.52,3.52,0,0,1-.48-1.8,3.26,3.26,0,0,1,1.3-2.69,6.13,6.13,0,0,1,3.88-1h3v-.29a2.18,2.18,0,0,0-.7-1.8,2.64,2.64,0,0,0-1.73-.58,3,3,0,0,0-1.63.46,1.88,1.88,0,0,0-.86,1.3h-3A4.28,4.28,0,0,1,38,47.17a4.83,4.83,0,0,1,2-1.46,6.49,6.49,0,0,1,2.69-.53,5.92,5.92,0,0,1,4,1.27,4.54,4.54,0,0,1,1.46,3.6v7.32H45.46l-.28-1.92A4.42,4.42,0,0,1,43.69,57,4.28,4.28,0,0,1,41.26,57.66Zm.7-2.4a2.5,2.5,0,0,0,2-.87,4.08,4.08,0,0,0,.94-2.13H42.32a2.68,2.68,0,0,0-1.75.45A1.35,1.35,0,0,0,40,53.79a1.25,1.25,0,0,0,.53,1.08A2.27,2.27,0,0,0,42,55.26Zm13.23,2.11a4.61,4.61,0,0,1-3-.91,4,4,0,0,1-1.13-3.24V48H49V45.47h2l.36-3.2h2.72v3.2h3.21V48H54.14v5.21a1.59,1.59,0,0,0,.36,1.2,2,2,0,0,0,1.29.31h1.49v2.62Zm7.94.29a5.78,5.78,0,0,1-2.52-.48,3.56,3.56,0,0,1-1.46-1.32,3.52,3.52,0,0,1-.48-1.8A3.26,3.26,0,0,1,60,51.37a6.13,6.13,0,0,1,3.88-1h3v-.29a2.18,2.18,0,0,0-.7-1.8,2.64,2.64,0,0,0-1.73-.58,3,3,0,0,0-1.63.46,1.88,1.88,0,0,0-.86,1.3H59a4.28,4.28,0,0,1,.86-2.26,4.83,4.83,0,0,1,2-1.46,6.49,6.49,0,0,1,2.69-.53,5.92,5.92,0,0,1,4,1.27A4.54,4.54,0,0,1,70,50.05v7.32H67.33l-.28-1.92A4.42,4.42,0,0,1,65.56,57,4.28,4.28,0,0,1,63.13,57.66Zm.7-2.4a2.5,2.5,0,0,0,2-.87,4.08,4.08,0,0,0,.94-2.13H64.19a2.68,2.68,0,0,0-1.75.45,1.35,1.35,0,0,0-.53,1.08,1.25,1.25,0,0,0,.53,1.08A2.27,2.27,0,0,0,63.83,55.26ZM79,57.66a5.12,5.12,0,0,1-2.35-.51A4.16,4.16,0,0,1,75,55.74l-.33,1.63H71.92V40.09H75v7.08a5.53,5.53,0,0,1,1.52-1.39,4.59,4.59,0,0,1,2.47-.6A5.62,5.62,0,0,1,82,46a5.94,5.94,0,0,1,2.09,2.24,6.62,6.62,0,0,1,.76,3.21,6.69,6.69,0,0,1-.76,3.22A6,6,0,0,1,82,56.87,5.79,5.79,0,0,1,79,57.66ZM78.33,55a3.25,3.25,0,0,0,2.42-1,3.51,3.51,0,0,0,1-2.55,3.59,3.59,0,0,0-1-2.57,3.19,3.19,0,0,0-2.42-1,3.24,3.24,0,0,0-2.45,1A3.57,3.57,0,0,0,75,51.42,3.66,3.66,0,0,0,75.88,54,3.3,3.3,0,0,0,78.33,55Zm9.94-11.35a2,2,0,0,1-1.39-.51,1.68,1.68,0,0,1-.53-1.27,1.62,1.62,0,0,1,.53-1.25,2,2,0,0,1,1.39-.5,1.92,1.92,0,0,1,1.37.5,1.57,1.57,0,0,1,.55,1.25,1.63,1.63,0,0,1-.55,1.27A1.89,1.89,0,0,1,88.27,43.62ZM86.74,57.37V45.47h3.07v11.9Zm10.62,0a4.61,4.61,0,0,1-3-.91,4,4,0,0,1-1.13-3.24V48h-2V45.47h2l.36-3.2H96.3v3.2h3.22V48H96.3v5.21a1.59,1.59,0,0,0,.36,1.2,2.09,2.09,0,0,0,1.3.31h1.49v2.62Z"/></svg>